<?xml version="1.0" standalone="no"?>
<!DOCTYPE svg PUBLIC "-//W3C//DTD SVG 20010904//EN"
 "http://www.w3.org/TR/2001/REC-SVG-20010904/DTD/svg10.dtd">
<svg version="1.0" xmlns="http://www.w3.org/2000/svg"
 width="500.000000pt" height="500.000000pt" viewBox="0 0 500.000000 500.000000"
 preserveAspectRatio="xMidYMid meet">

<g transform="translate(0.000000,500.000000) scale(0.100000,-0.100000)"
fill="#000000" stroke="none">
<path d="M1560 3875 c0 -8 4 -15 10 -15 5 0 7 7 4 15 -4 8 -8 15 -10 15 -2 0
-4 -7 -4 -15z"/>
<path d="M1780 3710 c-8 -5 -12 -11 -9 -14 2 -3 11 -1 19 4 8 5 12 11 9 14 -2
3 -11 1 -19 -4z"/>
<path d="M1900 3680 c0 -5 5 -10 11 -10 5 0 7 5 4 10 -3 6 -8 10 -11 10 -2 0
-4 -4 -4 -10z"/>
<path d="M1615 3660 c-3 -5 -1 -10 4 -10 6 0 11 5 11 10 0 6 -2 10 -4 10 -3 0
-8 -4 -11 -10z"/>
<path d="M1920 3532 c-25 -12 -30 -18 -17 -20 11 -2 17 -13 17 -33 0 -16 5
-29 13 -29 9 0 8 -3 -2 -9 -10 -6 -10 -10 -1 -16 6 -4 9 -13 6 -21 -4 -11 -2
-12 14 -4 11 6 21 6 24 1 4 -5 0 -11 -6 -14 -10 -4 -11 -7 0 -18 10 -11 12
-11 12 1 0 7 2 11 5 8 10 -10 -15 -58 -30 -58 -8 0 -15 -8 -14 -17 0 -11 3
-13 6 -5 2 6 15 12 29 12 17 0 22 4 18 15 -10 24 31 18 50 -7 9 -13 14 -17 11
-10 -3 6 -1 12 4 12 6 0 11 -10 12 -22 0 -13 3 -17 6 -10 9 23 19 3 15 -31 -4
-34 -5 -35 -46 -35 -24 1 -58 -6 -76 -15 -18 -10 -46 -17 -62 -17 -15 0 -27
-4 -25 -9 1 -5 -9 -20 -23 -33 -81 -78 -119 -153 -127 -248 -4 -49 -1 -81 10
-115 9 -26 14 -51 11 -56 -3 -5 -1 -9 4 -9 4 0 19 -14 31 -31 19 -26 21 -33
10 -41 -11 -8 -10 -9 2 -5 11 4 27 -6 43 -24 14 -16 31 -29 36 -29 6 0 10 -9
10 -20 0 -11 6 -20 14 -20 8 0 19 -14 25 -31 14 -40 14 -58 0 -39 -9 12 -10
12 -5 -3 3 -10 6 -25 6 -33 0 -9 4 -13 9 -9 5 3 12 2 15 -3 3 -5 -18 -10 -47
-11 -29 -1 -63 -4 -77 -5 -14 -2 -56 -4 -94 -5 l-68 -1 5 -27 c3 -15 -1 -32
-8 -39 -7 -7 -11 -28 -10 -47 3 -29 -1 -35 -26 -44 -16 -6 -29 -17 -29 -25 0
-10 2 -10 8 -1 11 18 79 -5 85 -28 3 -11 1 -19 -3 -19 -9 0 -25 -40 -22 -52 1
-5 -2 -8 -7 -8 -5 0 -9 15 -10 33 0 17 -1 40 -1 50 -1 9 -9 16 -18 16 -26 -2
-79 -16 -64 -18 7 0 10 -6 6 -12 -5 -8 1 -10 19 -6 21 6 27 3 36 -23 7 -22 7
-30 -2 -30 -8 0 -8 -3 1 -12 8 -8 8 -17 1 -30 -5 -10 -7 -22 -4 -27 3 -5 -1
-11 -7 -14 -7 -2 -10 -8 -6 -12 5 -5 17 0 28 10 22 20 53 14 44 -10 -3 -8 -11
-12 -17 -8 -6 4 -8 -2 -4 -18 4 -13 7 -28 7 -32 0 -5 14 -6 30 -2 27 6 32 3
43 -24 l13 -30 13 30 c14 31 38 35 33 5 -3 -15 35 -38 49 -30 4 2 12 -2 18 -9
8 -11 -17 -26 -122 -74 -72 -33 -149 -66 -169 -74 -21 -7 -38 -17 -38 -21 0
-4 -8 -8 -17 -8 -10 0 -24 -4 -31 -9 -11 -6 -10 -11 3 -25 24 -23 42 -20 49
10 7 27 36 30 44 5 3 -10 -1 -12 -16 -9 -14 4 -19 1 -17 -11 3 -21 25 -16 48
11 9 11 17 17 17 13 0 -4 6 -2 14 4 10 9 16 8 26 -4 7 -9 20 -13 27 -10 8 2
24 0 35 -6 17 -9 23 -8 30 5 11 20 28 21 28 1 0 -27 26 -27 71 -1 30 17 43 30
41 42 -3 15 -1 16 12 5 11 -9 20 -10 29 -4 33 27 148 81 143 68 -4 -12 8 -15
67 -16 73 -1 116 -4 174 -13 26 -4 41 3 83 37 l52 42 -107 12 c-58 6 -111 13
-117 15 -6 2 8 16 31 31 36 24 46 26 80 18 32 -7 46 -5 71 10 23 14 50 19 108
19 70 0 81 3 101 24 l22 23 -41 6 c-51 7 -55 10 -40 37 9 17 14 19 25 10 10
-8 19 -8 35 0 11 6 40 10 65 9 37 -2 54 4 102 36 32 22 80 57 106 78 26 22 51
37 54 33 3 -3 42 14 87 38 130 70 359 158 407 155 16 0 6 -5 -111 -50 -295
-113 -739 -432 -1056 -756 -45 -47 -56 -53 -93 -53 -22 0 -41 3 -41 6 0 3 21
26 46 52 l45 47 -73 5 c-43 3 -76 1 -80 -5 -5 -6 -11 -5 -16 3 -14 21 -111 12
-161 -16 -38 -21 -42 -27 -29 -36 14 -10 14 -14 1 -31 -7 -11 -21 -20 -30 -20
-9 0 -18 -6 -21 -13 -5 -15 56 -14 77 2 11 8 13 8 7 -1 -5 -10 6 -13 46 -14
29 -1 58 -2 63 -4 6 -1 31 -3 58 -3 47 -2 47 -2 47 -36 0 -66 1 -66 125 -66
l113 0 28 44 28 44 117 -5 118 -6 15 38 c9 21 19 36 22 32 3 -3 1 -14 -5 -25
-6 -12 -11 -31 -10 -44 0 -19 4 -16 20 17 19 42 23 74 13 113 -6 20 -13 22
-73 23 -36 1 -78 4 -93 8 l-28 6 53 51 52 52 50 -8 c75 -13 133 -12 138 3 2 6
2 1 0 -13 l-4 -25 20 25 c14 17 18 33 14 55 -3 16 -7 31 -8 32 -1 2 -29 6 -63
9 -34 4 -62 10 -62 14 0 3 13 18 28 33 27 26 30 26 87 17 80 -13 95 -13 95 4
0 8 4 17 9 20 5 4 7 -4 4 -16 -4 -22 -4 -22 11 -5 27 34 2 67 -50 67 -44 0
-48 9 -16 37 23 21 33 23 72 17 89 -15 105 -12 108 19 3 23 0 27 -21 27 -24 0
-59 28 -41 32 5 1 38 2 74 3 50 0 65 3 65 15 1 19 -14 30 -42 30 -13 0 -23 4
-23 8 0 19 49 34 100 30 33 -2 54 1 57 8 4 13 -38 27 -47 16 -3 -4 -14 -9 -25
-10 -13 -3 -6 6 18 22 21 14 44 26 52 26 8 0 15 5 15 10 0 6 7 10 16 10 13 0
14 -3 5 -14 -17 -20 18 -31 38 -11 14 13 13 16 -3 28 -26 19 -5 31 39 23 25
-5 47 -1 82 17 26 13 92 41 146 62 53 21 92 42 86 45 -7 5 -5 9 6 14 24 9 27
8 19 -6 -5 -8 -2 -9 12 -4 10 5 34 12 52 18 18 5 30 13 27 17 -2 5 3 8 12 7 9
0 18 4 20 10 2 8 -20 14 -64 18 -133 14 -326 59 -429 102 -78 32 -196 94 -254
134 -32 22 -61 40 -64 40 -3 0 -7 -17 -9 -37 -3 -29 -4 -25 -5 18 -1 30 -8 61
-14 69 -7 8 -3 6 10 -4 19 -17 22 -17 22 -3 0 22 -93 83 -155 102 -27 8 -96
20 -152 27 l-102 12 -18 50 c-25 70 -65 96 -150 96 -49 0 -62 -3 -57 -12 4 -7
19 -31 34 -53 14 -22 27 -56 27 -75 l2 -35 -14 42 c-20 63 -63 130 -98 155
-18 12 -34 25 -37 30 -3 4 -5 44 -4 88 2 47 -2 80 -7 80 -6 0 -8 4 -5 9 3 5
-1 11 -9 15 -8 3 -13 11 -10 18 3 7 1 19 -4 27 -8 12 -12 12 -25 2 -14 -12
-15 -10 -10 17 4 17 1 32 -5 36 -6 4 -11 3 -11 -3 0 -5 -12 -4 -27 5 -16 7
-34 14 -40 14 -7 0 -13 4 -13 10 0 5 -7 7 -15 4 -8 -4 -15 -1 -15 5 0 6 5 11
12 11 9 0 9 3 0 12 -10 10 -15 10 -21 -1 -5 -8 -18 -12 -28 -9 -13 3 -24 -2
-32 -14 -17 -27 -46 -5 -30 23 12 23 4 24 -41 1z m20 -23 c0 -6 -4 -7 -10 -4
-5 3 -10 11 -10 16 0 6 5 7 10 4 6 -3 10 -11 10 -16z m125 -27 c-3 -3 -11 0
-18 7 -9 10 -8 11 6 5 10 -3 15 -9 12 -12z m142 -94 c-3 -8 -6 -5 -6 6 -1 11
2 17 5 13 3 -3 4 -12 1 -19z m18 -306 c-2 -3 5 -18 16 -33 28 -40 17 -36 -14
4 -18 24 -21 34 -11 34 8 0 12 -2 9 -5z m123 -83 c-3 -8 -7 -3 -11 10 -4 17
-3 21 5 13 5 -5 8 -16 6 -23z m162 6 c13 -14 21 -25 18 -25 -2 0 -15 11 -28
25 -13 14 -21 25 -18 25 2 0 15 -11 28 -25z m-50 -5 c14 -11 31 -20 38 -20 6
0 12 -5 12 -10 0 -6 -11 -4 -27 4 -38 20 -70 45 -58 45 6 1 21 -8 35 -19z
m-171 -50 c0 -10 -3 -8 -9 5 -12 27 -12 43 0 25 5 -8 9 -22 9 -30z m371 -64
c58 -31 122 -63 143 -72 20 -9 37 -22 37 -29 0 -13 -65 16 -118 54 -17 11 -33
21 -36 21 -3 0 -28 14 -56 30 -28 17 -55 30 -59 30 -5 0 -6 -14 -2 -32 5 -24
16 -37 41 -50 19 -9 78 -38 130 -63 92 -45 137 -75 113 -75 -7 0 -14 4 -18 10
-3 5 -11 8 -18 6 -7 -1 -8 -1 -3 2 7 4 -225 122 -240 122 -2 0 -4 -12 -5 -27
0 -16 -5 -37 -10 -48 -7 -14 -8 -5 -5 32 l5 52 -71 38 c-39 21 -74 45 -76 52
-3 8 10 3 29 -11 19 -14 53 -35 77 -46 l43 -20 -7 36 c-4 20 -13 41 -21 45 -7
5 -10 13 -7 19 5 7 11 6 19 -5 6 -8 58 -40 115 -71z m-270 60 c0 -3 -4 -8 -10
-11 -5 -3 -10 -1 -10 4 0 6 5 11 10 11 6 0 10 -2 10 -4z m90 -77 c0 -5 -4 -8
-9 -5 -5 3 -14 -8 -20 -24 -5 -17 -12 -30 -14 -30 -9 0 6 55 17 62 16 11 26
10 26 -3z m409 -83 c-9 -8 -10 -7 -5 7 3 10 7 33 8 50 1 28 2 28 5 -7 3 -22
-1 -43 -8 -50z m-69 48 c0 -8 -5 -12 -10 -9 -6 4 -8 11 -5 16 9 14 15 11 15
-7z m-560 -45 c-11 -24 -26 -51 -33 -59 -26 -34 -85 -69 -130 -80 -48 -10
-127 -4 -127 11 0 4 15 3 33 -2 21 -6 50 -5 85 3 66 14 142 78 166 139 9 23
19 39 22 36 3 -2 -4 -24 -16 -48z m-447 -29 c13 -27 23 -50 21 -50 -7 0 -54
79 -54 90 0 21 10 9 33 -40z m967 -44 c0 -3 -4 -8 -10 -11 -5 -3 -10 -1 -10 4
0 6 5 11 10 11 6 0 10 -2 10 -4z m-137 -33 c7 -6 -21 -32 -36 -33 -4 0 -3 9 3
20 11 21 22 25 33 13z m117 -8 c0 -8 -4 -15 -10 -15 -5 0 -7 7 -4 15 4 8 8 15
10 15 2 0 4 -7 4 -15z m380 -25 c10 0 22 -4 25 -10 3 -5 1 -10 -4 -10 -7 0
-12 -34 -13 -87 l-2 -88 -3 85 c-5 107 -23 133 -23 32 0 -41 -4 -72 -10 -72
-6 0 -10 37 -10 93 1 67 3 87 11 75 5 -10 19 -18 29 -18z m-133 -82 c-2 -18
-4 -4 -4 32 0 36 2 50 4 33 2 -18 2 -48 0 -65z m-532 52 c33 -6 74 -15 90 -20
28 -7 28 -8 5 -9 -14 0 -41 3 -60 8 -19 5 -61 14 -92 21 -32 7 -58 17 -58 21
0 4 12 4 28 0 15 -5 54 -14 87 -21z m712 -117 c-2 -21 -4 -4 -4 37 0 41 2 58
4 38 2 -21 2 -55 0 -75z m-527 77 c20 -6 21 -8 5 -8 -11 0 -31 4 -45 8 -20 6
-21 8 -5 8 11 0 31 -4 45 -8z m619 -33 c0 -27 -2 -29 -9 -12 -12 28 -12 57 0
50 6 -3 10 -21 9 -38z m78 -24 c-2 -16 -4 -5 -4 22 0 28 2 40 4 28 2 -13 2
-35 0 -50z m-1407 32 c0 -12 -19 -12 -23 0 -4 9 -1 12 9 8 7 -3 14 -7 14 -8z
m1357 -17 c-3 -7 -5 -2 -5 12 0 14 2 19 5 13 2 -7 2 -19 0 -25z m-781 7 c-3
-8 0 -14 6 -12 6 1 13 -4 16 -12 3 -8 0 -11 -7 -7 -12 8 -43 -17 -36 -28 3 -3
0 -2 -6 3 -16 13 -1 71 18 71 9 0 13 -6 9 -15z m871 -17 c-3 -7 -5 -2 -5 12 0
14 2 19 5 13 2 -7 2 -19 0 -25z m85 -3 c-2 -19 -6 -35 -8 -35 -2 0 -4 16 -4
35 0 19 4 35 8 35 4 0 6 -16 4 -35z m15 -27 c-3 -7 -5 -2 -5 12 0 14 2 19 5
13 2 -7 2 -19 0 -25z m-1024 15 c-7 -2 -19 -2 -25 0 -7 3 -2 5 12 5 14 0 19
-2 13 -5z m1044 -15 c-3 -8 -6 -5 -6 6 -1 11 2 17 5 13 3 -3 4 -12 1 -19z m80
-10 c-3 -7 -5 -2 -5 12 0 14 2 19 5 13 2 -7 2 -19 0 -25z m-1184 4 c-10 -10
-20 -17 -22 -16 -6 5 20 34 30 34 5 0 1 -8 -8 -18z m281 -132 c5 -87 4 -109
-9 -128 -22 -30 -40 -28 -20 2 13 20 15 45 11 133 -3 60 -8 117 -11 128 -4 13
-1 11 8 -5 8 -15 17 -69 21 -130z m-134 69 c0 -32 -6 -47 -29 -68 l-29 -27 24
-27 c40 -46 30 -122 -18 -148 -20 -11 -19 -9 5 20 15 18 27 41 27 52 0 32 -26
85 -51 103 l-23 16 22 0 c35 0 62 34 62 80 0 22 2 40 5 40 3 0 5 -18 5 -41z
m-152 9 c-27 -9 -28 -13 -30 -81 l-2 -72 -5 74 -6 75 -70 -1 -70 -1 80 12 c44
6 91 9 105 7 l25 -4 -27 -9z m1202 2 c-8 -5 -22 -10 -30 -10 -13 0 -13 1 0 10
8 5 22 10 30 10 13 0 13 -1 0 -10z m-1402 -7 c-10 -2 -26 -2 -35 0 -10 3 -2 5
17 5 19 0 27 -2 18 -5z m12 -23 c0 -5 7 -7 15 -3 20 7 45 -25 40 -52 -2 -11
-4 -23 -4 -27 -2 -16 -34 -38 -55 -38 -13 0 -31 9 -42 21 -17 19 -18 21 -1 30
21 12 23 31 2 23 -21 -9 -19 12 5 36 21 21 40 26 40 10z m1171 -51 c-18 -11
-38 -18 -44 -16 -7 2 2 11 18 19 44 23 65 21 26 -3z m-1537 -5 c8 -21 -1 -34
-22 -34 -15 1 -15 2 2 15 11 8 14 15 8 15 -7 0 -12 5 -12 10 0 16 17 12 24 -6z
m-104 -4 c0 -5 -2 -10 -4 -10 -3 0 -8 5 -11 10 -3 6 -1 10 4 10 6 0 11 -4 11
-10z m1157 -26 c-3 -3 -12 -4 -19 -1 -8 3 -5 6 6 6 11 1 17 -2 13 -5z m-57
-14 c-14 -4 -34 -8 -45 -8 -16 0 -15 2 5 8 14 4 34 8 45 8 16 0 15 -2 -5 -8z
m-1090 -7 c-8 -3 -18 -11 -22 -17 -5 -7 -8 -4 -8 7 0 11 7 17 23 16 15 0 17
-2 7 -6z m-40 -37 c0 -2 -8 -10 -17 -17 -16 -13 -17 -12 -4 4 13 16 21 21 21
13z m170 -26 c0 -5 -8 -10 -17 -10 -15 0 -16 2 -3 10 19 12 20 12 20 0z m913
-85 c-6 -17 -53 -21 -53 -5 0 12 41 30 52 24 4 -3 5 -11 1 -19z m-1073 5 c0
-5 -4 -10 -10 -10 -5 0 -10 5 -10 10 0 6 5 10 10 10 6 0 10 -4 10 -10z m990
-35 c-28 -30 -65 -33 -80 -6 -16 31 -11 49 6 21 l15 -25 -6 25 -7 25 19 -27
19 -27 19 29 c13 19 23 26 29 20 6 -6 1 -19 -14 -35z m-650 31 c0 -3 -4 -8
-10 -11 -5 -3 -10 -1 -10 4 0 6 5 11 10 11 6 0 10 -2 10 -4z m887 -82 c-3 -3
-12 -4 -19 -1 -8 3 -5 6 6 6 11 1 17 -2 13 -5z m-150 -109 c0 -8 -4 -15 -9
-15 -10 0 -11 14 -1 23 9 10 10 9 10 -8z m-84 -112 c-7 -2 -19 -2 -25 0 -7 3
-2 5 12 5 14 0 19 -2 13 -5z m-56 -28 c-23 -22 -33 -18 -12 5 10 11 20 18 23
16 2 -3 -3 -12 -11 -21z m111 5 c-7 -10 -14 -17 -17 -15 -4 4 18 35 25 35 2 0
-1 -9 -8 -20z m-962 -67 c-2 -16 -4 -36 -5 -45 0 -10 -5 -18 -10 -18 -5 0 -8
8 -6 18 11 55 16 72 20 72 2 0 2 -12 1 -27z m-139 -35 c-3 -8 -6 -5 -6 6 -1
11 2 17 5 13 3 -3 4 -12 1 -19z m363 -68 c0 -5 -7 -10 -16 -10 -8 0 -12 5 -9
10 3 6 10 10 16 10 5 0 9 -4 9 -10z m-90 -10 c0 -5 -2 -10 -4 -10 -3 0 -8 5
-11 10 -3 6 -1 10 4 10 6 0 11 -4 11 -10z m50 -21 c0 -24 -4 -30 -16 -25 -8 3
-24 1 -34 -4 -13 -7 -21 -7 -25 0 -3 6 2 13 11 17 10 3 26 15 36 25 25 25 28
23 28 -13z m563 24 c-7 -2 -21 -2 -30 0 -10 3 -4 5 12 5 17 0 24 -2 18 -5z
m79 -15 c-7 -7 -12 -8 -12 -2 0 14 12 26 19 19 2 -3 -1 -11 -7 -17z m-542 -12
c0 -2 -7 -6 -15 -10 -8 -3 -15 -1 -15 4 0 6 7 10 15 10 8 0 15 -2 15 -4z m393
-13 c-3 -7 -10 -14 -17 -15 -6 -1 14 -4 44 -8 l55 -6 -72 -4 c-63 -4 -70 -3
-59 10 8 8 12 20 9 26 -2 7 6 11 20 10 15 0 23 -6 20 -13z m77 7 c0 -13 -20
-13 -40 0 -12 8 -9 10 13 10 15 0 27 -4 27 -10z m60 -4 c0 -3 -4 -8 -10 -11
-5 -3 -10 -1 -10 4 0 6 5 11 10 11 6 0 10 -2 10 -4z"/>
<path d="M2240 2382 c0 -7 -8 -12 -17 -13 -14 0 -15 -2 -3 -6 8 -3 18 -11 22
-17 4 -6 9 -4 14 7 4 10 2 23 -5 30 -8 8 -11 8 -11 -1z"/>
<path d="M1870 3529 c0 -5 -5 -7 -12 -3 -7 4 -8 3 -4 -5 6 -9 11 -9 22 0 17
14 18 19 4 19 -5 0 -10 -5 -10 -11z"/>
<path d="M2152 3518 c-18 -18 -14 -27 8 -21 21 6 26 18 12 27 -5 3 -14 0 -20
-6z"/>
<path d="M1796 3505 c4 -8 8 -15 10 -15 2 0 4 7 4 15 0 8 -4 15 -10 15 -5 0
-7 -7 -4 -15z"/>
<path d="M1817 3490 c-4 -15 0 -20 14 -20 10 0 19 5 19 11 0 6 7 3 16 -5 8 -9
12 -21 8 -27 -4 -8 -3 -9 5 -5 17 11 9 39 -14 53 -29 18 -42 16 -48 -7z"/>
<path d="M1775 3490 c3 -5 8 -10 11 -10 2 0 4 5 4 10 0 6 -5 10 -11 10 -5 0
-7 -4 -4 -10z"/>
<path d="M1500 3460 c0 -12 8 -12 35 0 18 8 17 9 -7 9 -16 1 -28 -3 -28 -9z"/>
<path d="M1896 3444 c-4 -9 -4 -19 -1 -22 2 -3 7 3 11 12 4 9 4 19 1 22 -2 3
-7 -3 -11 -12z"/>
<path d="M1575 3430 c3 -5 8 -10 11 -10 2 0 4 5 4 10 0 6 -5 10 -11 10 -5 0
-7 -4 -4 -10z"/>
<path d="M1790 3329 c0 -5 5 -7 10 -4 6 3 10 8 10 11 0 2 -4 4 -10 4 -5 0 -10
-5 -10 -11z"/>
<path d="M2035 3280 c-3 -5 -1 -10 4 -10 6 0 11 5 11 10 0 6 -2 10 -4 10 -3 0
-8 -4 -11 -10z"/>
<path d="M1750 2541 c0 -5 9 -7 20 -4 11 3 20 7 20 9 0 2 -9 4 -20 4 -11 0
-20 -4 -20 -9z"/>
<path d="M1597 2361 c3 -12 9 -21 14 -21 14 0 11 16 -5 29 -12 10 -13 8 -9 -8z"/>
<path d="M1634 2323 c-4 -16 -14 -34 -23 -42 -11 -9 -8 -9 9 2 15 9 26 25 27
41 2 34 -5 33 -13 -1z"/>
<path d="M1586 2315 c4 -8 8 -15 10 -15 2 0 4 7 4 15 0 8 -4 15 -10 15 -5 0
-7 -7 -4 -15z"/>
<path d="M1375 2130 c-3 -6 1 -7 9 -4 18 7 21 14 7 14 -6 0 -13 -4 -16 -10z"/>
<path d="M1521 2094 c0 -11 3 -14 6 -6 3 7 2 16 -1 19 -3 4 -6 -2 -5 -13z"/>
<path d="M1596 2083 c-6 -14 -5 -15 5 -6 7 7 10 15 7 18 -3 3 -9 -2 -12 -12z"/>
<path d="M1530 2005 c0 -8 9 -15 20 -15 11 0 20 2 20 5 0 2 -9 9 -20 15 -16 9
-20 8 -20 -5z"/>
<path d="M1471 1987 c-8 -10 -7 -14 4 -14 8 0 15 6 15 14 0 7 -2 13 -4 13 -2
0 -9 -6 -15 -13z"/>
<path d="M1335 1960 c-13 -5 -14 -9 -5 -9 8 0 24 4 35 9 13 5 14 9 5 9 -8 0
-24 -4 -35 -9z"/>
<path d="M1393 1926 c-31 -15 -29 -28 2 -14 14 6 25 15 25 20 0 4 -1 7 -2 7
-2 -1 -13 -6 -25 -13z"/>
<path d="M1445 1700 c-3 -5 1 -10 9 -10 8 0 20 -8 25 -17 10 -17 10 -17 11 -1
0 21 -36 43 -45 28z"/>
<path d="M1345 1660 c4 -36 12 -50 28 -50 8 0 8 3 -2 9 -9 6 -10 11 -2 15 18
11 9 56 -11 56 -13 0 -16 -7 -13 -30z"/>
<path d="M1395 1680 c-3 -6 1 -7 9 -4 18 7 21 14 7 14 -6 0 -13 -4 -16 -10z"/>
<path d="M1837 1671 c-4 -17 -2 -18 14 -8 22 14 25 27 5 27 -7 0 -16 -9 -19
-19z"/>
<path d="M1621 1666 c-9 -10 -6 -12 14 -8 29 5 31 8 11 15 -8 3 -19 0 -25 -7z"/>
<path d="M1515 1660 c3 -5 8 -10 11 -10 2 0 4 5 4 10 0 6 -5 10 -11 10 -5 0
-7 -4 -4 -10z"/>
<path d="M1790 1566 c0 -9 5 -16 10 -16 6 0 10 4 10 9 0 6 -4 13 -10 16 -5 3
-10 -1 -10 -9z"/>
<path d="M1710 1560 c0 -5 7 -10 15 -10 8 0 15 5 15 10 0 6 -7 10 -15 10 -8 0
-15 -4 -15 -10z"/>
</g>
</svg>
